<?xml version="1.0" encoding="UTF-8"?>
<svg width="80px" height="80px" viewBox="0 0 80 80" version="1.1" xmlns="http://www.w3.org/2000/svg" xmlns:xlink="http://www.w3.org/1999/xlink">
    <!-- Generator: Sketch 49.2 (51160) - http://www.bohemiancoding.com/sketch -->
    <title>happy2</title>
    <desc>Created with Sketch.</desc>
    <defs>
        <linearGradient x1="33.2617243%" y1="19.0398532%" x2="77.5658993%" y2="86.8221975%" id="linearGradient-1">
            <stop stop-color="#FFD971" offset="0%"></stop>
            <stop stop-color="#F6BE71" offset="100%"></stop>
        </linearGradient>
        <path d="M27.3687831,26 C42.7142857,26 52,12.4629975 52,4.00237096 C52,-4.45825559 45.9402116,4.00237096 26,4.00237096 C6.05978836,4.00237096 1.10406272e-15,-5.0029637 0,4.00237096 C0,13.0077056 12.0232804,26 27.3687831,26 Z" id="path-2"></path>
    </defs>
    <g id="Page-1" stroke="none" stroke-width="1" fill="none" fill-rule="evenodd">
        <g id="emodji" transform="translate(0.000000, -107.000000)">
            <g id="happy2" transform="translate(0.000000, 107.000000)">
                <g id="Group-3">
                    <circle id="Oval" fill="url(#linearGradient-1)" cx="40" cy="40" r="40"></circle>
                    <g id="Oval-13" transform="translate(14.000000, 45.000000)">
                        <mask id="mask-3" fill="white">
                            <use xlink:href="#path-2"></use>
                        </mask>
                        <use id="Mask" stroke="#542A14" stroke-width="3" fill="#542A14" xlink:href="#path-2"></use>
                        <path d="M26.3720323,8 C37.9079803,8 53,3 51.9770524,0.320382573 C51.4742389,-0.99674056 54,-2.21964533 54,-3.4195679 C54,-8.40993112 41.7084572,-10 26.5206266,-10 C11.3327959,-10 -1,-8.40993112 -1,-3.4195679 C-1,-2.1823959 0.340927732,-1.36371093 7.77156117e-16,0 C-1,4 14.9494504,8 26.3720323,8 Z" id="Oval-2" fill="#FFFFFF" mask="url(#mask-3)"></path>
                        <path d="M26.0344828,30 C33.2332288,30 40,27.5375661 40,24.5 C40,21.4624339 33.2332288,19 26.0344828,19 C18.8357367,19 13,22.3910053 13,25.4285714 C13,28.4661376 18.8357367,30 26.0344828,30 Z" fill="#F46767" mask="url(#mask-3)"></path>
                    </g>
                </g>
                <path d="M25,30.7735532 C28.3137085,30.7735532 31,36.8415874 31,33.3400658 C31,29.8385441 28.3137085,27 25,27 C21.6862915,27 19,29.8385441 19,33.3400658 C19,36.8415874 21.6862915,30.7735532 25,30.7735532 Z" id="Oval-14-Copy-2" fill="#2D2D2D"></path>
                <path d="M55,30.7735532 C58.3137085,30.7735532 61,36.8415874 61,33.3400658 C61,29.8385441 58.3137085,27 55,27 C51.6862915,27 49,29.8385441 49,33.3400658 C49,36.8415874 51.6862915,30.7735532 55,30.7735532 Z" id="Oval-14-Copy-2" fill="#2D2D2D"></path>
            </g>
        </g>
    </g>
</svg>